<svg width="64" height="64" viewBox="0 0 64 64" fill="none" xmlns="http://www.w3.org/2000/svg">
  <g clip-path="url(#clip0_4252_62)">
    <path d="M0 0H64V64H0V0Z" fill="#44475A"/>
    <ellipse cx="32.5" cy="32" rx="13.5" ry="13" fill="#6272A4"/>
    <path d="M32 17.125C23.7125 17.125 17.125 23.7125 17.125 32C17.125 40.2875 23.7125 46.875 32 46.875C40.2875 46.875 46.875 40.2875 46.875 32C46.875 23.7125 40.2875 17.125 32 17.125ZM29.3034 43.8957L32 38.5004L34.7157 43.9319C32.9316 44.3247 31.0821 44.3124 29.3034 43.8957ZM37.5293 42.931L34.125 36.1246V33.2049C36.6793 32.4781 40.0049 30.9736 40.1876 30.8886C40.2808 30.8471 40.3599 30.7794 40.4154 30.6938C40.4708 30.6081 40.5002 30.5083 40.5 30.4062V28.2812C40.5003 28.2114 40.4867 28.1422 40.4601 28.0776C40.4335 28.013 40.3944 27.9544 40.345 27.905C40.2956 27.8556 40.237 27.8165 40.1724 27.7899C40.1078 27.7633 40.0386 27.7497 39.9688 27.75C39.8933 27.7497 39.8186 27.7657 39.7499 27.7967C38.1455 28.5235 33.6277 30.4062 32 30.4062C30.3723 30.4062 25.8545 28.5235 24.2523 27.7967C24.1709 27.7612 24.0821 27.7461 23.9936 27.7528C23.905 27.7594 23.8195 27.7877 23.7444 27.835C23.6694 27.8829 23.6077 27.9488 23.565 28.0268C23.5223 28.1048 23.5 28.1923 23.5 28.2812V30.4062C23.4999 30.5085 23.5293 30.6086 23.5848 30.6946C23.6402 30.7805 23.7192 30.8486 23.8124 30.8908C23.9972 30.9736 27.308 32.459 29.875 33.1921V36.1246L26.4878 42.8991C24.4581 41.8969 22.7522 40.3426 21.5659 38.4147C20.3797 36.4869 19.7611 34.2635 19.7812 32C19.7812 24.9854 25.1618 19.7812 32.1126 19.7812C39.0635 19.7812 44.2188 25.2127 44.2188 32C44.2315 34.2641 43.6122 36.4868 42.4303 38.4179C41.2485 40.3491 39.5511 41.9121 37.5293 42.931Z" fill="#F8F8F2"/>
    <path d="M32 28.0156C33.3203 28.0156 34.3906 26.9453 34.3906 25.625C34.3906 24.3047 33.3203 23.2344 32 23.2344C30.6797 23.2344 29.6094 24.3047 29.6094 25.625C29.6094 26.9453 30.6797 28.0156 32 28.0156Z" fill="#F8F8F2"/>
  </g>
  <defs>
    <clipPath id="clip0_4252_62">
      <rect width="64" height="64" fill="white"/>
    </clipPath>
  </defs>
</svg>
