<svg width="64" height="64" viewBox="0 0 64 64" fill="none" xmlns="http://www.w3.org/2000/svg">
  <g clip-path="url(#clip0_4252_94)">
    <path d="M0 0H64V64H0V0Z" fill="#44475A"/>
    <path d="M37.85 33.68C37.4544 33.6784 37.0682 33.5598 36.74 33.3391C36.4117 33.1184 36.1561 32.8055 36.0053 32.4398C35.8546 32.0741 35.8154 31.672 35.8927 31.2841C35.9701 30.8962 36.1605 30.5399 36.44 30.26L40.76 25.94C42.7 24 42.33 20.46 39.94 18.06C37.54 15.66 34.01 15.29 32.06 17.24L27.74 21.56C26.96 22.34 25.69 22.34 24.91 21.56C24.13 20.78 24.13 19.51 24.91 18.73L29.23 14.41C32.73 10.91 38.81 11.28 42.76 15.23C46.72 19.19 47.09 25.26 43.58 28.76L39.26 33.08C38.87 33.47 38.36 33.67 37.85 33.67V33.68ZM22.73 46C20.03 46 17.32 44.85 15.23 42.76C11.27 38.8 10.9 32.73 14.41 29.23L18.73 24.91C19.51 24.13 20.78 24.13 21.56 24.91C22.34 25.69 22.34 26.96 21.56 27.74L17.24 32.06C15.3 34 15.67 37.54 18.06 39.94C19.62 41.5 21.76 42.26 23.65 41.93C24.74 41.74 25.77 42.46 25.97 43.55C26.0161 43.8087 26.0107 44.0739 25.9542 44.3306C25.8977 44.5872 25.7912 44.8302 25.6408 45.0457C25.4903 45.2611 25.2989 45.4448 25.0774 45.5863C24.8559 45.7277 24.6087 45.8241 24.35 45.87C23.81 45.96 23.27 46.01 22.73 46.01V46Z" fill="#6272A4"/>
    <path opacity="0.4" d="M22.75 37.25C22.3545 37.2484 21.9683 37.1298 21.64 36.9091C21.3117 36.6884 21.0561 36.3755 20.9054 36.0099C20.7546 35.6442 20.7154 35.242 20.7928 34.8541C20.8701 34.4662 21.0605 34.1099 21.34 33.83L33.84 21.33C34.62 20.55 35.89 20.55 36.67 21.33C37.45 22.11 37.45 23.38 36.67 24.16L24.17 36.66C23.78 37.05 23.27 37.25 22.76 37.25H22.75Z" fill="#F8F8F2"/>
    <path d="M38 52C37.47 52 36.96 51.79 36.59 51.41L30.59 45.41C29.81 44.63 29.81 43.36 30.59 42.58C31.37 41.8 32.64 41.8 33.42 42.58L37.89 47.05L48.48 34.69C49.2 33.85 50.46 33.76 51.3 34.47C52.14 35.19 52.24 36.45 51.52 37.29L39.52 51.29C39.16 51.71 38.64 51.97 38.08 51.99H38V52Z" fill="#F8F8F2"/>
  </g>
  <defs>
    <clipPath id="clip0_4252_94">
      <rect width="64" height="64" fill="white"/>
    </clipPath>
  </defs>
</svg>
