<svg width="64" height="64" viewBox="0 0 64 64" fill="none" xmlns="http://www.w3.org/2000/svg">
  <g clip-path="url(#clip0_4252_83)">
    <path d="M0 0H64V64H0V0Z" fill="#44475A"/>
    <g clip-path="url(#clip1_4252_83)">
      <path d="M45.436 23.3825L41.192 19.4037C41.0045 19.228 40.7502 19.1293 40.485 19.1293C40.2199 19.1293 39.9656 19.228 39.778 19.4037L18.564 39.2938C18.3766 39.4696 18.2712 39.708 18.2712 39.9566C18.2712 40.2052 18.3766 40.4436 18.564 40.6194L22.808 44.5981C22.9956 44.7739 23.2499 44.8726 23.515 44.8726C23.7802 44.8726 24.0345 44.7739 24.222 44.5981L45.436 24.7063C45.6235 24.5304 45.7288 24.292 45.7288 24.0434C45.7288 23.7948 45.6235 23.5583 45.436 23.3825ZM23.516 42.6069L20.686 39.9556L34.122 27.3594L36.95 30.0106L23.516 42.6069ZM35.536 26.0337L40.486 21.3931L43.314 24.0444L38.364 28.685L35.536 26.0337ZM29.5 20.75H28V19.3438C28 19.2194 27.9473 19.1002 27.8536 19.0123C27.7598 18.9244 27.6326 18.875 27.5 18.875H26.5C26.3674 18.875 26.2402 18.9244 26.1465 19.0123C26.0527 19.1002 26 19.2194 26 19.3438V20.75H24.5C24.3674 20.75 24.2402 20.7994 24.1465 20.8873C24.0527 20.9752 24 21.0944 24 21.2188V22.1562C24 22.415 24.224 22.625 24.5 22.625H26V24.0312C26 24.29 26.224 24.5 26.5 24.5H27.5C27.6326 24.5 27.7598 24.4506 27.8536 24.3627C27.9473 24.2748 28 24.1556 28 24.0312V22.625H29.5C29.6326 22.625 29.7598 22.5756 29.8536 22.4877C29.9473 22.3998 30 22.2806 30 22.1562V21.2188C30 21.0944 29.9473 20.9752 29.8536 20.8873C29.7598 20.7994 29.6326 20.75 29.5 20.75ZM45.5 39.5H42V36.2188C42 36.0944 41.9473 35.9752 41.8536 35.8873C41.7598 35.7994 41.6326 35.75 41.5 35.75H40.5C40.3674 35.75 40.2402 35.7994 40.1465 35.8873C40.0527 35.9752 40 36.0944 40 36.2188V39.5H36.5C36.3674 39.5 36.2402 39.5494 36.1465 39.6373C36.0527 39.7252 36 39.8444 36 39.9688V40.9062C36 41.165 36.224 41.375 36.5 41.375H40V44.6562C40 44.915 40.224 45.125 40.5 45.125H41.5C41.6326 45.125 41.7598 45.0756 41.8536 44.9877C41.9473 44.8998 42 44.7806 42 44.6562V41.375H45.5C45.6326 41.375 45.7598 41.3256 45.8536 41.2377C45.9473 41.1498 46 41.0306 46 40.9062V39.9688C46 39.8444 45.9473 39.7252 45.8536 39.6373C45.7598 39.5494 45.6326 39.5 45.5 39.5Z" fill="#F8F8F2"/>
      <path d="M29.5 20.75H28V19.3438C28 19.2194 27.9473 19.1002 27.8536 19.0123C27.7598 18.9244 27.6326 18.875 27.5 18.875H26.5C26.3674 18.875 26.2402 18.9244 26.1464 19.0123C26.0527 19.1002 26 19.2194 26 19.3438V20.75H24.5C24.3674 20.75 24.2402 20.7994 24.1464 20.8873C24.0527 20.9752 24 21.0944 24 21.2188V22.1562C24 22.415 24.224 22.625 24.5 22.625H26V24.0312C26 24.29 26.224 24.5 26.5 24.5H27.5C27.6326 24.5 27.7598 24.4506 27.8536 24.3627C27.9473 24.2748 28 24.1556 28 24.0312V22.625H29.5C29.6326 22.625 29.7598 22.5756 29.8536 22.4877C29.9473 22.3998 30 22.2806 30 22.1562V21.2188C30 21.0944 29.9473 20.9752 29.8536 20.8873C29.7598 20.7994 29.6326 20.75 29.5 20.75ZM45.5 39.5H42V36.2188C42 36.0944 41.9473 35.9752 41.8536 35.8873C41.7598 35.7994 41.6326 35.75 41.5 35.75H40.5C40.3674 35.75 40.2402 35.7994 40.1464 35.8873C40.0527 35.9752 40 36.0944 40 36.2188V39.5H36.5C36.3674 39.5 36.2402 39.5494 36.1464 39.6373C36.0527 39.7252 36 39.8444 36 39.9688V40.9062C36 41.165 36.224 41.375 36.5 41.375H40V44.6562C40 44.915 40.224 45.125 40.5 45.125H41.5C41.6326 45.125 41.7598 45.0756 41.8536 44.9877C41.9473 44.8998 42 44.7806 42 44.6562V41.375H45.5C45.6326 41.375 45.7598 41.3256 45.8536 41.2377C45.9473 41.1498 46 41.0306 46 40.9062V39.9688C46 39.8444 45.9473 39.7252 45.8536 39.6373C45.7598 39.5494 45.6326 39.5 45.5 39.5Z" fill="#6272A4"/>
      <path d="M17.125 17.125H46.875V46.875H17.125V17.125Z" fill="#6272A4"/>
      <path d="M21.375 21.375H42.625V25.625H21.375V21.375Z" fill="#F8F8F2"/>
      <path d="M17.125 17.125V46.875H46.875V17.125H17.125ZM19.25 19.25H44.75V44.75H19.25V19.25Z" fill="#F8F8F2"/>
    </g>
  </g>
  <defs>
    <clipPath id="clip0_4252_83">
      <rect width="64" height="64" fill="white"/>
    </clipPath>
    <clipPath id="clip1_4252_83">
      <rect width="32" height="30" fill="white" transform="translate(16 17)"/>
    </clipPath>
  </defs>
</svg>
