<svg width="64" height="64" viewBox="0 0 64 64" fill="none" xmlns="http://www.w3.org/2000/svg">
  <g clip-path="url(#clip0_4252_53)">
    <path d="M0 0H64V64H0V0Z" fill="#44475A"/>
    <ellipse cx="32.5" cy="28" rx="8.5" ry="8" fill="#6272A4"/>
    <path d="M32.2 18C20.8914 18 12 24.4008 12 32C12 39.5992 20.4857 46 32 46C43.1114 46 52 39.5992 52 32.196C52 24.398 43.1114 18.3976 32.6057 18H32.2029H32.2ZM32.1286 21.1556C32.5314 21.1556 33.3371 21.5504 33.3371 21.9452C33.3371 22.34 32.9371 22.7348 32.1286 22.7348C29.7143 22.7348 27.3 24.706 27.3 27.0748C27.3 27.4668 26.8971 27.8644 26.0914 27.8644C25.2857 27.8644 24.8829 27.4696 24.8829 27.0748C25.2857 23.9192 28.5057 21.1556 32.1286 21.1556ZM14.8571 32.084C14.8571 28.4496 17.7629 24.8292 22.42 22.8104C21.5743 24.02 21.5743 25.6384 21.5743 27.254C21.5743 32.91 26.2314 37.3508 32.1543 37.3508C38.08 37.3508 42.7371 32.9072 42.7371 27.254C42.7371 25.6384 42.3143 24.426 41.8914 23.2136C46.1229 25.2296 49.1429 28.85 49.1429 32.0812C48.72 37.7372 41.0257 43.0684 32 43.2C22.4 43.0684 14.8571 37.74 14.8571 32.084Z" fill="#F8F8F2"/>
  </g>
  <defs>
    <clipPath id="clip0_4252_53">
      <rect width="64" height="64" fill="white"/>
    </clipPath>
  </defs>
</svg>
